<?xml version="1.0" standalone="no"?>
<!DOCTYPE svg PUBLIC "-//W3C//DTD SVG 20010904//EN"
 "http://www.w3.org/TR/2001/REC-SVG-20010904/DTD/svg10.dtd">
<svg version="1.0" xmlns="http://www.w3.org/2000/svg"
 width="256.000000pt" height="256.000000pt" viewBox="0 0 256.000000 256.000000"
 preserveAspectRatio="xMidYMid meet">
<rect width="100%" height="100%" fill="#0082ca"/>
<g transform="translate(0.000000,256.000000) scale(0.100000,-0.100000)"
fill="#FFFFFF" stroke="none">
<path d="M317 2282 c-98 -99 -167 -176 -167 -187 0 -25 586 -613 618 -622 20
-5 36 7 93 63 l69 68 55 -54 55 -54 -175 -176 c-236 -237 -236 -203 8 -447
244 -244 209 -243 446 -8 l177 175 52 -53 52 -53 -60 -59 c-34 -33 -63 -71
-67 -84 -5 -20 34 -63 298 -327 239 -239 309 -304 329 -304 36 0 350 315 350
351 0 19 -70 94 -303 327 -166 166 -310 302 -320 302 -9 0 -48 -30 -87 -67
l-71 -67 -52 52 -51 52 165 167 c92 93 172 179 179 192 15 30 5 83 -20 106
-20 19 -20 19 22 62 36 36 43 50 43 83 0 38 -7 47 -96 135 -122 123 -144 129
-217 61 -48 -45 -49 -46 -67 -26 -23 25 -76 35 -106 20 -13 -7 -99 -87 -191
-178 l-168 -167 -55 55 -55 54 65 66 c45 45 65 73 65 90 0 36 -584 620 -621
620 -19 0 -64 -39 -192 -168z m576 -574 l-118 -118 -247 247 c-137 136 -248
252 -248 258 0 5 51 60 112 122 l113 113 252 -252 253 -253 -117 -117z m897
77 l64 -65 -27 -27 -27 -28 -67 67 -67 67 24 26 c13 14 26 25 30 25 3 0 35
-29 70 -65z m-267 -567 l-293 -293 -155 155 -155 155 292 292 293 293 155
-155 155 -155 -292 -292z m-496 -237 c67 -69 123 -128 123 -131 0 -3 -13 -18
-28 -33 l-28 -27 -154 155 -154 154 29 31 29 30 30 -27 c16 -16 85 -84 153
-152z m1058 -221 l250 -250 -118 -117 -117 -118 -252 252 -253 253 115 115
c63 63 117 115 120 115 3 0 118 -113 255 -250z"/>
<path d="M500 963 c-88 -15 -140 -46 -140 -84 0 -7 48 -61 107 -120 l106 -108
-36 -41 c-41 -45 -46 -69 -19 -93 27 -25 44 -21 82 18 19 19 38 35 44 35 5 0
58 -47 116 -105 125 -123 138 -127 173 -60 44 88 41 224 -8 332 -69 153 -259
254 -425 226z m184 -122 c53 -23 102 -64 132 -113 32 -50 57 -150 49 -190 l-7
-31 -174 174 c-119 119 -170 176 -161 181 17 12 112 -1 161 -21z"/>
<path d="M265 617 c-12 -19 -13 -34 -4 -84 27 -153 162 -273 309 -273 39 0 52
4 60 19 23 44 1 69 -74 81 -108 17 -176 84 -197 195 -7 33 -16 66 -22 73 -16
20 -55 14 -72 -11z"/>
<path d="M122 618 c-29 -29 -6 -161 45 -262 33 -65 125 -157 191 -190 96 -49
232 -72 260 -44 16 16 15 53 -2 71 -8 8 -42 17 -76 20 -171 18 -307 156 -329
332 -4 39 -13 70 -22 76 -20 12 -53 11 -67 -3z"/>
</g>
</svg>
